# xmcd
#
# Track frame offsets:
#	150
#	24600
#	51225
#
# Disc length: 1066 seconds
#
# Revision: 0
# Processed by: cddbd v1.4PL0 Copyright (c) Steve Scherf et al.
# Submitted via: EasyCDDAExtractor 5.0.0.0
#
DISCID=20042803
DTITLE=Taylor Dayne - Original Sin(Theme From ''The Shadow'')
DYEAR=1900
DGENRE=
TTITLE0=Original Sin(Theme From ''The Shadow'')(Radio Edit)
TTITLE1=Original Sin(Theme From ''The Shadow'')(Radio Mix)
TTITLE2=Original Sin(Theme From ''The Shadow'')(Album Version)
EXTD=
EXTT0=
EXTT1=
EXTT2=
PLAYORDER=
